# xmcd CD database file
#
# Track frame offsets:
#	150
#	65692
#	109661
#	157527
#
# Disc length: 2973 seconds
#
# Revision: 0
# Processed by: cddbd v1.5.2PL0 Copyright (c) Steve Scherf et al.
# Submitted via: CDex 1.51
#
DISCID=260b9b04
DTITLE=Will Bernard and Motherbug - The Jupiter - Dec. 2, 2000
DYEAR=2000
DGENRE=Jazz
TTITLE0=Butterfly
TTITLE1=Cars and Shoes
TTITLE2=Jam
TTITLE3=Jam, Red Clay
EXTD=YEAR: 2000
EXTT0=
EXTT1=
EXTT2=
EXTT3=
PLAYORDER=
